<svg width="36" height="34" viewBox="0 0 36 34" fill="none" xmlns="http://www.w3.org/2000/svg">
<g id="deco_lily.svg" clip-path="url(#clip0_21_6)">
<g id="&#227;&#131;&#172;&#227;&#130;&#164;&#227;&#131;&#164;&#227;&#131;&#188; 2">
<g id="&#231;&#183;&#168;&#233;&#155;&#134;&#227;&#131;&#162;&#227;&#131;&#188;&#227;&#131;&#137;">
<path id="Vector" d="M35.3638 18.851C35.7879 16.992 35.5418 15.4735 34.7249 14.9812C34.5066 14.829 34.251 14.7388 33.9854 14.7204C33.7198 14.702 33.4542 14.7559 33.2169 14.8765C33.0871 14.957 32.9824 15.0723 32.9149 15.2093C32.8473 15.3463 32.8195 15.4995 32.8346 15.6515C32.8346 15.751 32.8346 15.8243 32.6566 16.0285C32.3275 16.4211 31.9015 16.7207 31.4208 16.8978C31.2846 16.9501 31.1537 16.9973 31.0333 17.0339C31.3134 15.8341 31.1575 14.5738 30.5934 13.4784C29.9546 12.1536 28.4517 11.6195 27.3626 11.5671C26.4724 11.52 25.1266 11.8551 24.7967 12.3369C24.7373 12.4192 24.7002 12.5156 24.6892 12.6166C24.6782 12.7175 24.6936 12.8196 24.7339 12.9129C24.8275 13.0885 24.9691 13.2338 25.1423 13.3318C25.5116 13.5488 25.7834 13.8993 25.9016 14.311C26.0477 15.2524 26.0193 16.2127 25.8178 17.1439C25.7759 17.2015 25.7445 17.2538 25.7026 17.3062C25.4979 17.5606 25.2776 17.8019 25.0428 18.0288C24.5582 17.6923 23.9833 17.5098 23.3934 17.5052C22.6603 15.7615 21.7544 14.5676 20.7752 14.0544C20.9478 13.57 21.1489 13.0961 21.3773 12.6353C21.4297 12.5411 21.4821 12.4573 21.5397 12.3683C22.6223 11.5707 23.8467 10.986 25.1476 10.6455C25.7749 10.5552 26.4128 10.7109 26.9279 11.0801C27.1171 11.2222 27.3418 11.3091 27.5773 11.3315C27.6829 11.3311 27.7866 11.3034 27.8783 11.2511C27.9701 11.1988 28.0467 11.1237 28.1009 11.033C28.4465 10.4779 28.2161 8.70279 27.6506 7.5822C27.0065 6.28357 25.5665 4.75978 23.6447 4.71265C21.8929 4.60565 20.1657 5.16704 18.8115 6.28357C18.7618 5.9805 18.7338 5.67426 18.7277 5.3672C18.6856 4.64408 18.8318 3.92241 19.1519 3.27263C19.3404 2.85372 19.4713 2.80136 19.6232 2.74899C19.7932 2.69883 19.9451 2.6004 20.0604 2.46562C20.1756 2.33085 20.2493 2.16553 20.2725 1.98971C20.2955 1.6556 20.2255 1.32164 20.0702 1.02492C19.9149 0.728199 19.6804 0.480326 19.3927 0.308828C18.3978 -0.392851 16.4447 0.125553 14.4234 1.63364C12.7525 2.74643 11.5314 4.4167 10.9778 6.34641C10.0711 5.88369 9.07904 5.61195 8.06306 5.548C7.04708 5.48405 6.02879 5.62925 5.07117 5.97462C3.97153 6.34641 1.71987 7.76547 1.15958 9.2788C0.982811 9.65515 0.904498 10.0702 0.931974 10.4851C0.95945 10.9 1.09182 11.3011 1.31667 11.6509C1.47487 11.8874 1.68296 12.0864 1.92632 12.2339C2.16967 12.3813 2.44238 12.4737 2.72526 12.5044C2.87139 12.5056 3.01437 12.462 3.13509 12.3797C3.25581 12.2973 3.3485 12.1801 3.40076 12.0436C3.42217 11.9902 3.45225 11.9406 3.48978 11.897C3.57292 11.8174 3.64994 11.7316 3.72018 11.6404L3.88251 11.7242C4.47517 12.0134 4.9823 12.4519 5.35394 12.9966C4.90975 13.2056 4.47791 13.4399 4.06055 13.6983C2.4787 14.6724 1.31443 16.1987 0.793027 17.9817C0.311277 19.3746 0.159421 21.3854 1.31667 22.5164C1.52205 22.748 1.77122 22.9366 2.04982 23.0714C2.32842 23.2062 2.63094 23.2845 2.93995 23.3019H3.04992C3.22298 23.293 3.39233 23.2484 3.54732 23.1709C3.70232 23.0934 3.83961 22.9847 3.95058 22.8516C4.19146 22.5269 4.17051 21.8985 3.89298 20.9979C4.13447 20.6324 4.43951 20.3132 4.79364 20.0553C5.06473 19.8739 5.35882 19.7295 5.66812 19.6259C5.60005 19.982 5.53721 20.27 5.47961 20.5161C5.32579 21.1185 5.24665 21.7376 5.24397 22.3593C5.22922 23.2692 5.43969 24.1687 5.85663 24.9775C6.03185 25.3212 6.16377 25.6853 6.24936 26.0615C6.57926 27.6638 8.22349 28.8211 9.0299 29.0829C9.43215 29.2258 9.85463 29.3036 10.2814 29.3133C10.6313 29.3276 10.9759 29.2245 11.2605 29.0205C11.5451 28.8166 11.7534 28.5234 11.8523 28.1875C11.9016 28.045 11.9164 27.8929 11.8954 27.7436C11.8745 27.5943 11.8184 27.4521 11.7319 27.3287C11.6104 27.1214 11.5403 26.8879 11.5277 26.648C11.4648 25.9463 12.1875 24.3387 13.2452 22.8254C13.905 21.8828 14.7114 20.9193 15.1722 20.3852C15.5335 20.935 16.3137 21.0345 17.581 21.1969H17.8061C18.4978 21.27 19.1521 21.547 19.686 21.9928C20.0026 22.2225 20.3331 22.4323 20.6757 22.6212C20.8713 22.7272 21.0764 22.8149 21.2883 22.883C21.6601 23.4956 21.88 23.8203 22.2361 23.9303C22.0005 24.4068 21.6444 25.1137 21.2569 25.7421C20.4872 27.0093 19.686 27.8366 19.2775 27.9571C19.1334 28.016 18.9758 28.0341 18.822 28.0094C18.694 27.9891 18.563 27.9979 18.4388 28.035C18.3146 28.0722 18.2004 28.1368 18.1046 28.2241C17.4134 28.8525 17.4919 29.6484 18.3298 30.5857C18.9947 31.23 19.8759 31.6034 20.8013 31.633C20.9773 31.6353 21.153 31.6177 21.325 31.5807C21.5926 31.532 21.865 31.5144 22.1366 31.5283C22.8183 31.5718 23.5001 31.4459 24.1212 31.1617C24.5459 30.9754 24.9453 30.7362 25.3099 30.4496C25.4041 30.3763 25.5193 30.2977 25.6398 30.214C25.6347 30.3543 25.6207 30.4943 25.5979 30.6329C25.537 30.9036 25.4308 31.1621 25.2837 31.3974C24.2364 31.5335 24.0584 31.8477 23.9956 31.9629C23.9289 32.0932 23.8902 32.236 23.8821 32.3821C23.874 32.5282 23.8966 32.6744 23.9484 32.8112C24.0442 33.0581 24.1941 33.2803 24.3871 33.4616C24.5801 33.6429 24.8114 33.7785 25.0638 33.8585C25.313 33.9605 25.58 34.0121 25.8492 34.0104C26.8097 33.9394 27.7136 33.5292 28.3994 32.8531C29.4551 31.9539 30.1429 30.6976 30.3316 29.3238C30.3735 28.9991 30.3997 28.6902 30.4154 28.4022C30.7993 28.5123 31.156 28.7013 31.4627 28.9572L31.4155 29.1038C31.4023 29.1265 31.3865 29.1476 31.3684 29.1667C31.2656 29.2583 31.1949 29.3805 31.1666 29.5152C31.1384 29.65 31.154 29.7903 31.2113 29.9155C31.3247 30.1168 31.4811 30.2906 31.6694 30.4246C31.8576 30.5586 32.0731 30.6493 32.3005 30.6905C32.4059 30.7097 32.5128 30.7202 32.6199 30.7219C33.1685 30.6976 33.6857 30.4587 34.0599 30.0569C34.9815 29.1667 35.2381 27.1716 35.17 26.3547C35.0669 24.9026 34.4043 23.5472 33.3216 22.574C34.6307 21.5529 35.0444 20.2281 35.3638 18.851ZM26.5247 17.9451C27.4778 16.7354 27.771 15.4159 27.6087 15.1017L27.1374 15.3426H27.0327C27.034 14.9247 26.9972 14.5075 26.9227 14.0963C26.8106 13.5751 26.5266 13.1066 26.1163 12.7662C26.5008 12.6466 26.9025 12.5917 27.305 12.6039C28.1061 12.6458 29.2058 13.0176 29.6456 13.9287C30.1222 14.9289 30.5254 16.3427 29.3576 18.4059C28.5931 19.7516 26.7813 21.0241 25.5455 21.8043V21.7257C25.74 20.8088 25.756 19.863 25.5927 18.94C25.9242 18.6285 26.2355 18.2962 26.5247 17.9451ZM27.661 24.6843C27.6415 24.6356 27.6415 24.5812 27.661 24.5324C27.6805 24.4837 27.718 24.4443 27.7658 24.4225C27.7894 24.4109 27.8154 24.4049 27.8417 24.4049C27.868 24.4049 27.894 24.4109 27.9176 24.4225C27.9658 24.4428 28.0049 24.4801 28.0276 24.5272C28.0461 24.5761 28.0461 24.6301 28.0276 24.6791C28.0181 24.7042 28.0034 24.727 27.9845 24.7459C27.9655 24.7649 27.9427 24.7796 27.9176 24.789C27.894 24.8003 27.8683 24.8067 27.8422 24.8077C27.816 24.8088 27.7899 24.8045 27.7654 24.7952C27.741 24.7859 27.7186 24.7718 27.6998 24.7536C27.681 24.7355 27.666 24.7137 27.6558 24.6895L27.661 24.6843ZM27.2945 24.3858C27.2765 24.4382 27.2659 24.4928 27.2631 24.5482C26.9792 24.3072 26.666 24.1031 26.331 23.9407C26.19 23.8826 26.0578 23.805 25.9383 23.7103C25.8974 23.5667 25.8337 23.4306 25.7497 23.3071C25.719 23.2619 25.684 23.2198 25.645 23.1815C25.8653 23.2347 26.0821 23.3011 26.2943 23.3804C26.7283 23.5802 27.0929 23.9047 27.3416 24.3125C27.3295 24.3362 27.319 24.3607 27.3102 24.3858H27.2945ZM23.6081 5.75993C25.0743 5.80706 26.2263 7.03238 26.7132 8.06395C27.0139 8.68932 27.1917 9.36661 27.2369 10.059C26.5531 9.63876 25.7376 9.48759 24.9486 9.63487C24.4101 9.76121 23.8843 9.93648 23.3777 10.1585L23.2206 9.86004V9.3364C22.8645 9.3364 21.5973 10.2109 20.6285 11.8656C20.5762 11.9598 20.5186 12.0384 20.4662 12.1379C20.1722 12.7084 19.9168 13.2979 19.7017 13.9025C18.3978 14.0701 16.7745 15.0912 16.2038 15.4735C16.0362 15.5834 15.8896 15.6882 15.7587 15.7929C16.01 13.8397 16.6279 10.4832 18.0156 8.62424C19.9897 5.96939 22.0371 5.68662 23.6081 5.75993ZM11.1611 14.7351C11.2851 14.7354 11.4071 14.7037 11.5153 14.6432C11.6235 14.5827 11.7143 14.4953 11.779 14.3895H11.8157C12.5015 14.4838 13.1454 14.7748 13.6694 15.2274C14.0103 15.5834 14.3122 15.9749 14.57 16.3951C14.3751 16.2749 14.1607 16.1898 13.9364 16.1437C13.7546 16.1105 13.5684 16.1105 13.3866 16.1437H13.3238C13.1045 16.0381 12.9045 15.8965 12.732 15.7248C12.235 15.2949 11.6636 14.9594 11.0459 14.7351H11.1611ZM10.8155 13.9968C10.8155 13.9284 10.8358 13.8616 10.8738 13.8048C10.9117 13.748 10.9657 13.7037 11.0289 13.6775C11.092 13.6513 11.1615 13.6445 11.2285 13.6578C11.2956 13.6712 11.3572 13.7041 11.4055 13.7524C11.4538 13.8008 11.4867 13.8623 11.5001 13.9294C11.5134 13.9964 11.5066 14.0659 11.4804 14.1291C11.4543 14.1922 11.41 14.2462 11.3531 14.2842C11.2963 14.3221 11.2295 14.3424 11.1611 14.3424C11.0695 14.3424 10.9815 14.306 10.9167 14.2412C10.8519 14.1764 10.8155 14.0885 10.8155 13.9968ZM4.19146 19.1861C3.39836 19.8036 2.77793 20.6152 2.39013 21.5425C2.34764 21.6535 2.34419 21.7757 2.38035 21.8889C2.41652 22.0022 2.49014 22.0997 2.58911 22.1656C2.37907 22.0643 2.18782 21.9279 2.02358 21.7624C1.18576 20.9455 1.479 19.207 1.78271 18.3273C2.22524 16.7686 3.23853 15.4338 4.62084 14.5885C5.13532 14.27 5.67264 13.99 6.22842 13.7507C6.25545 13.7425 6.28173 13.732 6.30696 13.7193C8.3544 12.8657 9.63732 13.0909 9.64779 13.0909C9.71656 13.1053 9.78749 13.1061 9.85655 13.0931C9.92561 13.0801 9.99144 13.0537 10.0503 13.0153C10.1091 12.9769 10.1598 12.9272 10.1995 12.8692C10.2391 12.8112 10.267 12.746 10.2814 12.6772C10.2958 12.6085 10.2966 12.5375 10.2836 12.4685C10.2706 12.3994 10.2442 12.3336 10.2058 12.2747C10.1674 12.2159 10.1177 12.1652 10.0597 12.1256C10.0017 12.0859 9.93649 12.0581 9.86772 12.0436C9.79441 12.0436 8.45389 11.7609 6.32267 12.5673C5.86629 11.7965 5.19471 11.1759 4.39044 10.7816C4.11976 10.5993 3.81578 10.4722 3.4959 10.4075C3.17603 10.3428 2.84653 10.3418 2.52628 10.4046C2.32734 10.4534 2.14598 10.5568 2.00264 10.7031C1.94431 10.3492 1.9879 9.98592 2.12831 9.65582C2.52628 8.61901 4.35902 7.33085 5.4063 6.98525C6.27064 6.66741 7.19383 6.54165 8.11169 6.61671C9.02954 6.69176 9.92004 6.96584 10.7213 7.41987C10.56 8.22658 10.621 9.06194 10.8977 9.83667C11.1744 10.6114 11.6564 11.2964 12.2922 11.8185C12.4007 11.8944 12.534 11.9263 12.6652 11.9078C12.7964 11.8894 12.9157 11.8219 12.9991 11.719C13.0836 11.6092 13.1211 11.4703 13.1034 11.3329C13.0857 11.1955 13.0143 11.0707 12.9048 10.9859C12.4111 10.5679 12.0434 10.0209 11.8427 9.40595C11.642 8.791 11.6164 8.13236 11.7685 7.50365C11.942 6.48609 12.3224 5.51494 12.8863 4.65028C13.4501 3.78562 14.1854 3.04584 15.0465 2.4767C16.9055 1.08905 18.3769 0.87436 18.7853 1.16236C19.0004 1.29203 19.1592 1.49751 19.2304 1.73837C18.9906 1.82693 18.7728 1.9664 18.592 2.14719C18.4112 2.32799 18.2717 2.5458 18.1831 2.78565C17.7941 3.58278 17.6139 4.46566 17.6595 5.35149C17.6778 5.93897 17.755 6.52313 17.8899 7.09521C17.6377 7.38621 17.4034 7.69222 17.1882 8.01159C16.2637 9.39352 15.6131 10.9401 15.2717 12.5673C15.0969 12.1115 14.8609 11.6816 14.57 11.2896C14.6584 11.1638 14.7059 11.0139 14.7062 10.8602C14.7062 10.7142 14.6629 10.5714 14.5817 10.45C14.5006 10.3286 14.3853 10.2339 14.2504 10.1781C14.1155 10.1222 13.967 10.1076 13.8238 10.136C13.6806 10.1645 13.549 10.2349 13.4457 10.3381C13.3425 10.4414 13.2722 10.5729 13.2437 10.7161C13.2152 10.8594 13.2298 11.0078 13.2857 11.1427C13.3416 11.2777 13.4362 11.393 13.5576 11.4741C13.6791 11.5552 13.8218 11.5985 13.9678 11.5985C14.0218 11.6039 14.0762 11.6039 14.1302 11.5985C14.6394 12.225 14.9511 12.9887 15.0256 13.7926C14.9523 14.1748 14.8894 14.5414 14.8371 14.8818C14.648 14.2817 14.3766 13.7107 14.0307 13.1852C13.8019 12.8538 13.5095 12.5712 13.1707 12.3536C12.8318 12.1361 12.4531 11.988 12.0565 11.9179H11.9675C11.9487 11.9126 11.9287 11.9126 11.9099 11.9179C11.8957 11.7767 11.8408 11.6427 11.7519 11.532C11.663 11.4214 11.5439 11.3389 11.409 11.2947C11.2742 11.2504 11.1294 11.2463 10.9922 11.2828C10.855 11.3192 10.7314 11.3947 10.6363 11.5001C10.5412 11.6054 10.4787 11.7361 10.4565 11.8763C10.4342 12.0165 10.4531 12.1601 10.5109 12.2897C10.5687 12.4194 10.6629 12.5295 10.782 12.6066C10.9012 12.6837 11.0401 12.7247 11.1821 12.7244C11.2988 12.7233 11.4137 12.6949 11.5174 12.6412C11.6211 12.5875 11.7108 12.5102 11.779 12.4154L11.9518 12.4625C12.2844 12.5152 12.6028 12.6352 12.8873 12.8153C13.1719 12.9954 13.4166 13.2317 13.6065 13.5098C13.9629 14.0615 14.2347 14.6633 14.4129 15.2954C14.3082 15.175 14.1982 15.0493 14.0673 14.9132C13.4633 14.3701 12.7097 14.0216 11.9047 13.913C11.8783 13.7405 11.7908 13.5832 11.6582 13.4698C11.5256 13.3564 11.3566 13.2944 11.1821 13.2951C10.9871 13.2951 10.8001 13.3722 10.6618 13.5095C10.5235 13.6469 10.4451 13.8333 10.4437 14.0282C10.447 14.1605 10.4863 14.2894 10.5573 14.401C10.6283 14.5127 10.7285 14.6028 10.8469 14.6618C9.89602 14.4581 8.90317 14.6308 8.07687 15.1436C6.57926 15.9133 6.11845 17.2957 5.87758 18.4896C5.27999 18.603 4.71276 18.8402 4.2124 19.1861H4.19146ZM13.9469 11.2058C13.8785 11.2058 13.8117 11.1855 13.7549 11.1475C13.698 11.1096 13.6537 11.0556 13.6276 10.9924C13.6014 10.9293 13.5946 10.8598 13.6079 10.7928C13.6213 10.7257 13.6542 10.6641 13.7025 10.6158C13.7508 10.5675 13.8124 10.5346 13.8795 10.5212C13.9465 10.5079 14.016 10.5147 14.0791 10.5409C14.1423 10.5671 14.1963 10.6114 14.2342 10.6682C14.2722 10.725 14.2925 10.7918 14.2925 10.8602C14.2932 10.9058 14.2847 10.951 14.2676 10.9933C14.2505 11.0355 14.2251 11.0739 14.1928 11.1061C14.1606 11.1384 14.1222 11.1638 14.08 11.1809C14.0377 11.198 13.9925 11.2065 13.9469 11.2058ZM11.5067 11.9441C11.5067 12.0125 11.4864 12.0793 11.4485 12.1361C11.4105 12.193 11.3565 12.2373 11.2934 12.2634C11.2302 12.2896 11.1607 12.2964 11.0937 12.2831C11.0267 12.2698 10.9651 12.2368 10.9167 12.1885C10.8684 12.1402 10.8355 12.0786 10.8222 12.0116C10.8088 11.9445 10.8157 11.875 10.8418 11.8119C10.868 11.7487 10.9123 11.6947 10.9691 11.6568C11.0259 11.6188 11.0928 11.5985 11.1611 11.5985C11.2524 11.5999 11.3395 11.6367 11.404 11.7012C11.4685 11.7658 11.5054 11.8529 11.5067 11.9441ZM20.2882 21.134C19.6163 20.6031 18.809 20.2711 17.958 20.1758L17.738 20.1496C16.7903 20.0239 16.1095 19.9349 16.0467 19.7464C16.0164 19.6524 15.9601 19.5689 15.8844 19.5055L15.5178 19.1913C15.4135 19.1036 15.2792 19.0601 15.1433 19.0698C15.0073 19.0796 14.8806 19.142 14.7899 19.2437C13.9433 20.1919 13.148 21.1848 12.4074 22.218C11.4282 23.6318 10.3809 25.5588 10.5066 26.7317C10.5324 27.1192 10.6471 27.4954 10.8417 27.8314L10.8679 27.8733C10.7736 28.1508 10.6061 28.4859 9.35455 28.0775C8.86233 27.9152 7.51657 27.0302 7.25999 25.8416C7.16025 25.3857 7.00368 24.9441 6.79395 24.5272C6.43933 23.8603 6.2592 23.1146 6.27031 22.3593C6.27122 21.813 6.34339 21.269 6.485 20.7413C6.5426 20.4585 6.61591 20.1339 6.69446 19.694L6.76253 19.3013C6.9877 18.0341 7.2181 16.725 8.53767 16.0495C8.99593 15.7759 9.51306 15.6161 10.0458 15.5834C10.8031 15.6381 11.5161 15.9611 12.0565 16.4946C12.7844 17.102 13.0672 17.191 13.5018 17.1386C13.578 17.1258 13.6559 17.1258 13.7322 17.1386C14.068 17.255 14.3664 17.4593 14.5962 17.7304C14.6571 17.7978 14.7345 17.8482 14.8208 17.8767C14.9071 17.9052 14.9993 17.9107 15.0884 17.8927C15.1794 17.8754 15.2641 17.8343 15.3341 17.7736C15.404 17.7129 15.4565 17.6347 15.4864 17.5471C15.7924 17.0346 16.2299 16.6134 16.7536 16.327C18.2041 15.3478 19.4608 14.8713 20.0368 14.8975H20.063C20.13 14.9006 20.1958 14.9166 20.2568 14.9446C21.0213 15.3373 21.8277 16.437 22.4403 17.9555C23.2834 19.9873 23.2834 21.6786 22.964 21.8252C22.6702 21.9343 22.356 21.9772 22.0437 21.951C21.7315 21.9247 21.4289 21.8299 21.1574 21.6734C20.8575 21.5105 20.5673 21.3304 20.2882 21.134ZM24.6763 29.6118C24.3695 29.8536 24.0334 30.0559 23.6761 30.214C23.1851 30.4401 22.644 30.5357 22.1052 30.4915C21.7542 30.4767 21.4028 30.503 21.0579 30.57C20.6996 30.6002 20.3389 30.5542 19.9995 30.435C19.6602 30.3159 19.3499 30.1264 19.089 29.8788C18.6125 29.3552 18.6387 29.1562 18.7277 29.0462C19.0203 29.0751 19.3157 29.0375 19.5917 28.9363C20.6914 28.5697 21.901 26.6584 22.1314 26.2762C22.6228 25.4737 23.0703 24.6451 23.4719 23.7941C23.528 23.6702 23.5337 23.5293 23.4878 23.4013C23.4418 23.2733 23.3479 23.1681 23.2258 23.1082L22.9483 22.9668C23.1197 22.9342 23.2867 22.8815 23.4457 22.8097C24.6134 22.286 24.3097 20.1915 23.8175 18.5891C24.0694 18.6439 24.3057 18.7549 24.5087 18.9138C24.6972 19.0709 24.8229 20.0867 24.5611 21.532C24.5228 21.9367 24.3842 22.3254 24.1579 22.6631V22.6945C24.1376 22.7148 24.12 22.7377 24.1055 22.7625C24.0832 22.7957 24.064 22.8307 24.0479 22.8673C24.0479 22.8673 24.0479 22.8987 24.0479 22.9144C24.0453 22.9545 24.0453 22.9947 24.0479 23.0348C24.045 23.0627 24.045 23.0908 24.0479 23.1186C24.0528 23.155 24.0634 23.1903 24.0793 23.2234C24.0884 23.2509 24.1007 23.2773 24.116 23.3019C24.116 23.3019 24.116 23.3386 24.1474 23.3543L24.1841 23.3804C24.2136 23.4124 24.247 23.4405 24.2836 23.4642L24.3621 23.5061H24.3935C24.6138 23.5693 24.814 23.6884 24.9748 23.8517C24.9996 23.8863 25.0174 23.9255 25.0271 23.9669C25.1371 24.3387 25.3361 24.522 25.954 24.8309C27.2002 25.4593 27.2578 26.0667 27.2107 26.9255C27.1479 27.9361 26.3676 28.4545 25.6398 28.9572L25.3989 29.1195C25.0428 29.3238 24.8438 29.4861 24.6763 29.6118ZM34.1489 26.428C34.217 27.1873 33.9081 28.7582 33.3582 29.2871C33.2976 29.3458 33.2329 29.4 33.1645 29.4494C33.0395 28.9882 32.7605 28.5835 32.3738 28.3027C32.3005 28.2398 32.2324 28.177 32.1382 28.1089C31.6442 27.6982 31.0494 27.427 30.4154 27.3235C30.39 26.4772 30.1269 25.6551 29.6561 24.9514C29.5672 24.8444 29.4395 24.7772 29.301 24.7644C29.1626 24.7516 29.0247 24.7944 28.9178 24.8833C28.8108 24.9722 28.7436 25.0999 28.7308 25.2384C28.7181 25.3768 28.7608 25.5147 28.8497 25.6216C28.8497 25.6216 29.6613 26.6689 29.3157 29.1667C29.1513 30.3112 28.5602 31.3512 27.661 32.0781C27.0431 32.6489 26.0901 33.1254 25.4303 32.8793C25.4673 32.8579 25.5023 32.8334 25.5351 32.806C26.0566 32.2483 26.4278 31.5672 26.6138 30.8266C26.6946 30.4028 26.6946 29.9675 26.6138 29.5437C27.0545 29.2787 27.4265 28.9135 27.6995 28.4776C27.9724 28.0418 28.1387 27.5477 28.1847 27.0355C28.268 26.4005 28.1489 25.7555 27.8443 25.1922C27.9272 25.1905 28.009 25.1727 28.0852 25.1399C28.2271 25.0768 28.3382 24.9601 28.3941 24.8152C28.4544 24.6693 28.4544 24.5055 28.3941 24.3597C28.3629 24.2879 28.3176 24.2232 28.2609 24.1692C28.2043 24.1153 28.1374 24.0732 28.0642 24.0455C27.9732 24.022 27.8777 24.022 27.7867 24.0455C27.4727 23.542 27.0149 23.1443 26.4724 22.9039H26.441C26.7993 22.8709 27.1604 22.8868 27.5144 22.9511C27.7483 22.9935 27.9711 23.0832 28.1692 23.2146C28.3672 23.3461 28.5364 23.5165 28.6664 23.7156C28.6945 23.7627 28.7299 23.8051 28.7712 23.8412C28.7304 23.968 28.7335 24.1047 28.78 24.2294C28.8265 24.3542 28.9138 24.4596 29.0276 24.5286C29.1414 24.5976 29.2752 24.6262 29.4073 24.6098C29.5394 24.5934 29.6621 24.533 29.7556 24.4382C29.8477 24.358 29.9131 24.2516 29.9428 24.1331C29.9725 24.0147 29.9652 23.8899 29.9218 23.7758C29.8784 23.6616 29.8011 23.5635 29.7002 23.4947C29.5993 23.4259 29.4797 23.3897 29.3576 23.3909C29.2877 23.3937 29.2188 23.4078 29.1534 23.4328L29.1168 23.3857C28.9513 23.1339 28.7374 22.9177 28.4874 22.7496C28.2375 22.5814 27.9566 22.4648 27.661 22.4065C27.3367 22.3455 27.0063 22.3227 26.6766 22.3384C26.8546 22.2232 27.0327 22.0975 27.2002 21.9666C27.6823 21.8689 28.1803 21.8832 28.656 22.0085C28.7017 22.0245 28.7516 22.0245 28.7973 22.0085C28.7973 22.0085 28.7973 22.0609 28.7973 22.0871C28.8277 22.1584 28.8721 22.223 28.9279 22.277C28.9837 22.3309 29.0497 22.3732 29.122 22.4012C29.1904 22.4282 29.2632 22.4424 29.3367 22.4431C29.4196 22.4413 29.5014 22.4236 29.5776 22.3908C29.6492 22.3601 29.714 22.3154 29.7682 22.2594C29.8224 22.2033 29.8649 22.137 29.8932 22.0644C29.9215 21.9918 29.935 21.9142 29.9329 21.8363C29.9309 21.7583 29.9133 21.6816 29.8813 21.6105C29.8406 21.5085 29.7718 21.4201 29.6829 21.3556C29.5941 21.2911 29.4887 21.253 29.3791 21.2459C29.2695 21.2388 29.1601 21.2629 29.0637 21.3154C28.9672 21.3678 28.8876 21.4466 28.834 21.5425C28.8142 21.5299 28.7931 21.5194 28.7712 21.511C28.5062 21.4389 28.2339 21.3967 27.9595 21.3854C28.8788 20.714 29.6654 19.8777 30.2792 18.919C30.4206 18.6729 30.5358 18.4373 30.6406 18.2069C31.0473 18.129 31.4454 18.0115 31.8292 17.856C32.4463 17.616 32.9935 17.2253 33.4211 16.7197C33.6852 16.4632 33.8455 16.1183 33.8714 15.751C33.9793 15.769 34.0825 15.8081 34.1751 15.8662C34.416 16.0128 34.6988 16.9658 34.3322 18.6048C33.9657 20.2438 33.4944 21.2964 32.2377 22.0504C32.1836 22.0706 32.1339 22.1008 32.091 22.1394H32.0544C31.4185 22.4345 30.706 22.5224 30.0174 22.3908C29.9487 22.3756 29.8776 22.3742 29.8083 22.3865C29.7389 22.3989 29.6727 22.4247 29.6134 22.4627C29.5541 22.5006 29.5028 22.5498 29.4625 22.6076C29.4222 22.6653 29.3937 22.7304 29.3786 22.7992C29.3635 22.868 29.362 22.939 29.3744 23.0084C29.3867 23.0777 29.4126 23.1439 29.4505 23.2032C29.4884 23.2625 29.5377 23.3138 29.5954 23.3541C29.6531 23.3944 29.7183 23.4229 29.787 23.438C30.082 23.4956 30.3819 23.5236 30.6824 23.5218C31.281 23.5264 31.8731 23.3976 32.4157 23.1448C32.9201 23.5386 33.3354 24.0348 33.6342 24.6007C33.9329 25.1666 34.1084 25.7894 34.1489 26.428ZM29.3472 23.8098C29.4 23.8143 29.4498 23.8364 29.4885 23.8727C29.5068 23.8916 29.5211 23.9139 29.5307 23.9383C29.5403 23.9628 29.545 23.9889 29.5445 24.0151C29.544 24.0414 29.5383 24.0673 29.5279 24.0914C29.5174 24.1154 29.5022 24.1372 29.4833 24.1554C29.4644 24.1737 29.4421 24.188 29.4176 24.1976C29.3932 24.2072 29.3671 24.2119 29.3408 24.2114C29.3146 24.2109 29.2887 24.2052 29.2646 24.1947C29.2405 24.1842 29.2188 24.1691 29.2005 24.1502C29.1642 24.112 29.1437 24.0615 29.1429 24.0088C29.1474 23.956 29.1695 23.9061 29.2058 23.8674C29.224 23.8485 29.246 23.8336 29.2704 23.8237C29.2947 23.8138 29.3209 23.809 29.3472 23.8098ZM29.2686 21.6629C29.2946 21.6582 29.3212 21.6582 29.3472 21.6629C29.3713 21.6575 29.3963 21.6575 29.4205 21.6629C29.4565 21.6781 29.4872 21.7036 29.5088 21.7362C29.5304 21.7688 29.542 21.8071 29.542 21.8462C29.542 21.8853 29.5304 21.9235 29.5088 21.9561C29.4872 21.9887 29.4565 22.0142 29.4205 22.0294C29.3968 22.0407 29.3712 22.0471 29.345 22.0481C29.3189 22.0492 29.2928 22.045 29.2683 22.0357C29.2438 22.0264 29.2215 22.0122 29.2027 21.994C29.1838 21.9759 29.1688 21.9541 29.1587 21.93C29.1471 21.9063 29.1411 21.8803 29.1411 21.854C29.1411 21.8277 29.1471 21.8017 29.1587 21.7781C29.1681 21.7524 29.1827 21.7288 29.2016 21.709C29.2205 21.6892 29.2433 21.6735 29.2686 21.6629Z" fill="#3A2E26"/>
</g>
</g>
</g>
<defs>
<clipPath id="clip0_21_6">
<rect width="35.1363" height="34" fill="white" transform="translate(0.431763)"/>
</clipPath>
</defs>
</svg>
