<svg width="1068" height="279" viewBox="0 0 1068 279" fill="none" xmlns="http://www.w3.org/2000/svg">
<path d="M20.6065 211.058C18.1957 211.058 9.10929 200.562 5.29035 193.367C1.04574 185.365 2.33082 166.661 7.64466 159.15C11.5282 153.66 25.6621 145.208 27.6068 147.214C28.2101 147.837 25.9102 151.933 22.4948 156.318C19.0793 160.703 15.7022 167.554 14.992 171.544L13.6989 178.799L18.5548 169.598C21.2278 164.536 25.9445 158.449 29.0392 156.07C34.5931 151.799 34.7041 151.795 37.5345 155.783C43.3063 163.912 40.7865 173.03 29.017 186.61C23.7274 192.712 22.2466 196.239 22.2466 202.739C22.2466 207.313 21.5082 211.058 20.6065 211.058Z" fill="white"/>
<path d="M22.751 128.596C13.9107 125.68 9.51882 122.215 6.02267 115.395C-1.67775 100.373 3.10147 76.855 15.567 68.4282C20.0033 65.4313 20.2292 65.527 20.2292 70.3929C20.2292 78.3161 23.2836 84.8157 30.9477 93.2009C34.817 97.432 38.5795 103.349 39.3098 106.348C40.6554 111.88 37.2218 123.647 34.2602 123.647C30.6087 123.647 20.4067 112.693 16.3457 104.41C12.6176 96.8118 12.1677 96.4392 13.1865 101.794C13.8401 105.228 17.0538 112.548 20.3281 118.061C27.3022 129.803 27.3748 130.119 22.751 128.596Z" fill="white"/>
<path d="M56.4597 116.827C52.8466 114.281 48.2106 108.937 46.1569 104.949C41.6116 96.127 41.426 88.5078 45.5093 78.4264C48.8319 70.2202 57.8699 57.0482 60.1758 57.0482C60.9505 57.0482 61.6424 63.3709 61.713 71.0964C61.8845 89.9438 65.4795 97.4403 74.7313 98.2478C84.6771 99.1156 97.3545 89.8855 117.643 67.0089C136.986 45.1999 144.697 40.3985 160.38 40.3985C174.655 40.3985 186.975 46.2592 197.529 58.0701C211.178 73.3482 213.196 91.7732 203.218 110.057C195.079 124.971 180.461 131.054 163.818 126.457C159.371 125.229 159.527 124.929 166.812 120.714C180.314 112.9 180.935 100.183 168.442 87.2944C153.456 71.8352 142.476 74.8196 115.178 101.765C100.167 116.587 93.3963 121.815 86.8781 123.626C82.1655 124.935 77.0453 125.505 75.4959 124.891C71.1867 123.185 72.1248 125.942 78.0156 132.284L83.3477 138.026L77.007 145.477C73.5189 149.575 70.6642 153.217 70.6642 153.566C70.6642 153.918 74.6526 154.268 79.5287 154.345C91.4838 154.53 94.9174 156.719 116.427 177.862C143.141 204.123 156.158 206.999 170.431 189.794C181.904 175.968 179.41 161.82 164.473 155.993L160.439 154.418L164.473 152.707C170.982 149.947 183.389 150.461 189.552 153.749C209.621 164.457 216.194 195.767 202.57 215.763C193.607 228.918 179.973 236.719 164.12 237.759C145.649 238.973 139.032 235.225 117.839 211.545C91.4072 182.006 76.4885 173.914 67.4525 184.214C64.5253 187.55 63.4399 192.535 62.8831 205.197L62.1528 221.805L56.0724 215.911C48.033 208.117 44.438 198.924 44.438 186.156C44.438 177.047 45.3882 174.605 51.7572 167.331C55.7839 162.734 61.3378 158.386 64.1016 157.673C68.9051 156.428 68.7981 156.255 61.6808 153.731C53.6838 150.894 48.6403 145.577 48.5374 139.874C48.4244 133.674 52.786 126.265 57.9889 123.82L63.0264 121.451L56.4597 116.827Z" fill="white"/>
<path d="M247.819 69.7298C247.819 68.0513 247.414 66.5754 246.603 65.3021C245.851 63.9708 244.809 62.8711 243.478 62.0029C242.147 61.1348 240.613 60.4691 238.876 60.0061C237.14 59.5431 235.288 59.3115 233.32 59.3115C232.857 59.3115 232.625 59.08 232.625 58.617V55.2311C232.625 54.768 232.828 54.5365 233.233 54.5365H288.103C288.392 54.5365 288.566 54.6233 288.624 54.797C288.74 54.9706 288.797 55.1153 288.797 55.2311V58.617C288.797 58.7328 288.74 58.8775 288.624 59.0511C288.566 59.2247 288.392 59.3115 288.103 59.3115C286.367 59.3115 284.572 59.4273 282.72 59.6588C280.926 59.8903 279.247 60.4113 277.685 61.2216C276.18 62.0319 274.935 63.2184 273.951 64.7812C273.025 66.286 272.562 68.3407 272.562 70.9453V131.805C272.562 143.381 275.514 152.353 281.418 158.719C287.322 165.028 296.148 168.183 307.898 168.183C312.76 168.183 317.419 167.517 321.876 166.186C326.332 164.797 330.268 162.684 333.683 159.848C337.098 157.012 339.818 153.395 341.844 148.996C343.87 144.597 344.883 139.359 344.883 133.281V79.3668C344.883 77.3989 344.796 75.3731 344.622 73.2894C344.506 71.2058 344.043 69.2379 343.233 67.3857C342.423 65.5336 341.149 63.9419 339.413 62.6107C337.677 61.2216 335.217 60.2666 332.033 59.7456C330.586 59.5141 329.371 59.3984 328.387 59.3984C327.461 59.3405 326.853 59.3115 326.564 59.3115C326.101 59.3115 325.869 59.08 325.869 58.617V55.2311C325.869 54.768 326.101 54.5365 326.564 54.5365H371.883C372.173 54.5365 372.346 54.6233 372.404 54.797C372.52 54.9706 372.578 55.1153 372.578 55.2311V58.617C372.578 58.7328 372.52 58.8775 372.404 59.0511C372.288 59.2247 372.115 59.3115 371.883 59.3115C369.8 59.3115 367.948 59.4852 366.327 59.8325C364.764 60.1219 363.578 60.4402 362.767 60.7875C361.783 61.1926 360.886 61.8293 360.076 62.6975C359.266 63.5078 358.571 64.4049 357.992 65.3889C357.471 66.315 357.066 67.2989 356.777 68.3407C356.487 69.3247 356.343 70.1929 356.343 70.9453V126.51C356.343 134.671 355.272 142.021 353.13 148.562C350.989 155.044 347.748 160.572 343.407 165.144C339.124 169.659 333.712 173.16 327.171 175.649C320.631 178.08 312.991 179.296 304.251 179.296C300.084 179.296 295.772 178.977 291.315 178.341C286.916 177.704 282.604 176.691 278.379 175.302C274.212 173.913 270.276 172.118 266.572 169.919C262.867 167.72 259.626 165.086 256.848 162.019C254.07 158.951 251.87 155.42 250.25 151.427C248.629 147.433 247.819 142.918 247.819 137.883V69.7298ZM376.919 172.437C376.919 172.321 376.948 172.176 377.006 172.003C377.121 171.829 377.324 171.742 377.613 171.742C381.433 171.742 384.385 171.308 386.469 170.44C388.61 169.514 390.173 168.27 391.157 166.707C392.199 165.086 392.836 163.176 393.067 160.977C393.299 158.777 393.472 156.404 393.588 153.858C393.935 146.391 394.341 139.156 394.804 132.153C395.324 125.091 395.816 118.175 396.279 111.403C396.743 104.573 397.148 97.8303 397.495 91.1742C397.842 84.518 398.016 77.833 398.016 71.1189V67.9066C398.016 66.5754 397.582 65.4178 396.714 64.4339C395.845 63.392 394.804 62.5239 393.588 61.8293C392.43 61.1348 391.244 60.6138 390.028 60.2666C388.813 59.9193 387.858 59.7456 387.163 59.7456C386.7 59.7456 386.469 59.5141 386.469 59.0511V55.2311C386.469 55.1153 386.498 54.9706 386.556 54.797C386.614 54.6233 386.816 54.5365 387.163 54.5365H417.897C418.534 54.6523 419.055 54.8838 419.46 55.2311C419.865 55.5204 420.242 55.9256 420.589 56.4465L458.355 140.661C458.76 141.645 459.281 142.137 459.918 142.137C460.555 142.137 461.018 141.992 461.307 141.703C461.596 141.413 461.828 141.037 462.002 140.574L499.334 58.0093C499.913 56.9096 500.491 56.0703 501.07 55.4915C501.649 54.8548 502.228 54.5365 502.806 54.5365H533.367C533.714 54.5365 533.917 54.6233 533.975 54.797C534.032 54.9706 534.061 55.1153 534.061 55.2311V59.0511C534.061 59.1669 534.003 59.3115 533.888 59.4852C533.83 59.6588 533.656 59.7456 533.367 59.7456C533.251 59.7456 532.556 59.8614 531.283 60.0929C530.068 60.3244 528.708 60.7875 527.203 61.482C525.756 62.1187 524.424 63.0737 523.209 64.3471C521.994 65.5625 521.386 67.1831 521.386 69.2089L526.421 161.671C526.479 163.35 526.913 164.768 527.724 165.925C528.592 167.083 529.634 168.038 530.849 168.79C532.065 169.543 533.338 170.122 534.669 170.527C536.058 170.874 537.332 171.163 538.489 171.395C539.705 171.569 540.717 171.684 541.528 171.742C542.396 171.742 542.859 171.742 542.917 171.742C543.206 171.742 543.38 171.829 543.438 172.003C543.554 172.176 543.611 172.321 543.611 172.437V176.257C543.611 176.373 543.554 176.517 543.438 176.691C543.38 176.865 543.206 176.951 542.917 176.951H485.79C485.327 176.951 485.095 176.72 485.095 176.257V172.437C485.095 171.974 485.327 171.742 485.79 171.742C487.179 171.742 488.742 171.684 490.478 171.569C492.272 171.395 493.98 171.048 495.601 170.527C497.221 170.006 498.581 169.253 499.681 168.27C500.781 167.228 501.331 165.868 501.331 164.189L497.337 93.2578C497.279 92.679 497.134 92.3896 496.903 92.3896C496.671 92.3896 496.44 92.6501 496.208 93.171L458.181 175.475C457.892 176.112 457.487 176.517 456.966 176.691C456.503 176.865 455.664 176.951 454.448 176.951C452.365 176.951 450.802 176.894 449.76 176.778C448.776 176.662 448.11 176.199 447.763 175.389L410.778 93.8655C410.605 93.4604 410.46 93.171 410.344 92.9974C410.286 92.7658 410.142 92.6501 409.91 92.6501C409.505 92.6501 409.302 93.0263 409.302 93.7787C409.302 95.5151 409.216 98.0618 409.042 101.419C408.868 104.776 408.637 108.567 408.347 112.792C408.058 116.959 407.769 121.387 407.479 126.075C407.19 130.764 406.9 135.307 406.611 139.706C406.322 144.105 406.09 148.214 405.916 152.034C405.743 155.796 405.656 158.893 405.656 161.324V164.884C405.887 165.983 406.466 166.967 407.392 167.835C408.318 168.704 409.476 169.427 410.865 170.006C412.254 170.585 413.788 171.019 415.466 171.308C417.145 171.598 418.91 171.742 420.762 171.742C421.052 171.742 421.197 171.829 421.197 172.003C421.254 172.176 421.283 172.321 421.283 172.437V176.257C421.283 176.72 421.11 176.951 420.762 176.951H377.613C377.15 176.951 376.919 176.72 376.919 176.257V172.437ZM547.692 172.871C547.692 172.408 547.923 172.176 548.387 172.176C549.486 172.118 550.76 171.974 552.207 171.742C553.711 171.453 555.216 170.903 556.721 170.093C558.284 169.225 559.789 167.98 561.236 166.359C562.683 164.681 563.898 162.395 564.882 159.501L599.783 58.2697C599.783 58.3276 599.783 58.2987 599.783 58.1829C599.841 58.0671 599.87 57.9514 599.87 57.8356C599.87 57.4305 599.697 56.9385 599.349 56.3597C599.06 55.723 598.915 55.26 598.915 54.9706C598.915 54.6812 599.031 54.5365 599.263 54.5365H624.44C624.556 54.5944 624.701 54.6523 624.874 54.7101C625.106 54.768 625.279 54.9417 625.395 55.2311L662.12 158.285C662.698 159.906 663.248 161.295 663.769 162.453C664.29 163.61 664.898 164.652 665.592 165.578C666.345 166.446 667.271 167.257 668.371 168.009C669.47 168.704 670.888 169.427 672.625 170.18C673.435 170.585 674.535 171.019 675.924 171.482C677.313 171.945 678.644 172.176 679.917 172.176C680.207 172.176 680.38 172.263 680.438 172.437C680.554 172.61 680.612 172.784 680.612 172.958V176.257C680.612 176.373 680.554 176.517 680.438 176.691C680.38 176.865 680.207 176.951 679.917 176.951H618.97C618.681 176.951 618.478 176.865 618.363 176.691C618.305 176.517 618.276 176.373 618.276 176.257V172.871C618.276 172.755 618.305 172.61 618.363 172.437C618.478 172.263 618.681 172.176 618.97 172.176C619.202 172.176 619.433 172.176 619.665 172.176C619.897 172.118 620.07 172.09 620.186 172.09C620.823 172.032 621.72 171.974 622.877 171.916C624.093 171.858 625.395 171.771 626.784 171.655C628.173 171.482 629.562 171.25 630.951 170.961C632.398 170.614 633.701 170.151 634.858 169.572C636.016 168.935 636.971 168.125 637.723 167.141C638.476 166.157 638.852 164.941 638.852 163.494C638.852 163.147 638.794 162.742 638.678 162.279L627.305 130.937C627.247 130.822 627.131 130.561 626.958 130.156C626.842 129.751 626.611 129.346 626.263 128.94C625.974 128.477 625.569 128.072 625.048 127.725C624.585 127.378 624.006 127.204 623.311 127.204H591.97C591.217 127.204 590.581 127.378 590.06 127.725C589.539 128.072 589.105 128.448 588.757 128.854C588.41 129.259 588.121 129.664 587.889 130.069C587.716 130.474 587.629 130.706 587.629 130.764C585.777 136.204 584.214 140.806 582.941 144.568C581.667 148.272 580.596 151.34 579.728 153.771C578.918 156.202 578.281 158.083 577.818 159.414C577.355 160.745 577.008 161.729 576.776 162.366C576.603 162.945 576.487 163.321 576.429 163.494C576.429 163.61 576.429 163.668 576.429 163.668C576.429 163.842 576.458 164.044 576.516 164.276C576.574 164.449 576.632 164.623 576.69 164.797C577.153 166.244 577.992 167.459 579.207 168.443C580.481 169.369 581.928 170.122 583.548 170.7C585.169 171.221 586.818 171.598 588.497 171.829C590.233 172.061 591.767 172.176 593.098 172.176H595.356C595.645 172.176 595.819 172.263 595.877 172.437C595.992 172.61 596.05 172.755 596.05 172.871V176.257C596.05 176.373 595.992 176.517 595.877 176.691C595.819 176.865 595.645 176.951 595.356 176.951H548.387C547.923 176.951 547.692 176.72 547.692 176.257V172.871ZM593.185 114.702C593.069 114.992 592.983 115.281 592.925 115.57C592.867 115.86 592.838 116.149 592.838 116.439C592.838 116.786 592.925 117.075 593.098 117.307C593.272 117.48 593.619 117.567 594.14 117.567H620.186C620.823 117.567 621.228 117.451 621.401 117.22C621.633 116.93 621.749 116.612 621.749 116.265C621.749 115.975 621.72 115.715 621.662 115.484C621.604 115.252 621.517 114.992 621.401 114.702L609.854 83.0132C609.565 82.2028 609.131 81.6241 608.552 81.2768C607.973 80.8716 607.452 80.669 606.989 80.669C606.526 80.669 606.005 80.9006 605.427 81.3636C604.848 81.7688 604.414 82.3475 604.124 83.1L593.185 114.702ZM687.037 176.951C686.747 176.951 686.545 176.865 686.429 176.691C686.371 176.517 686.342 176.373 686.342 176.257V171.569C686.342 171.453 686.371 171.308 686.429 171.135C686.545 170.961 686.747 170.874 687.037 170.874C688.831 170.874 690.625 170.758 692.419 170.527C694.271 170.237 695.95 169.659 697.455 168.79C698.96 167.922 700.175 166.678 701.101 165.057C702.085 163.437 702.577 161.237 702.577 158.459V71.4662C702.577 69.4983 702.259 67.8488 701.622 66.5175C700.986 65.1863 700.088 64.1155 698.931 63.3052C697.773 62.437 696.384 61.8004 694.763 61.3952C693.143 60.9901 691.349 60.7296 689.381 60.6138C688.918 60.6138 688.686 60.3823 688.686 59.9193V55.2311C688.686 54.768 688.889 54.5365 689.294 54.5365H740.691C740.98 54.5365 741.154 54.6233 741.212 54.797C741.327 54.9706 741.385 55.1153 741.385 55.2311V59.9193C741.385 60.2666 741.154 60.4402 740.691 60.4402C738.954 60.4402 737.276 60.6138 735.655 60.9611C734.035 61.2505 732.617 61.8293 731.401 62.6975C730.186 63.5657 729.202 64.8101 728.449 66.4307C727.697 67.9935 727.321 70.0771 727.321 72.6817V108.451C727.321 109.03 727.407 109.406 727.581 109.58C727.755 109.753 728.131 109.84 728.71 109.84H789.309C789.888 109.84 790.264 109.753 790.438 109.58C790.612 109.406 790.699 109.03 790.699 108.451V71.2926C790.699 69.2668 790.062 67.5883 788.789 66.2571C787.515 64.9259 785.895 63.884 783.927 63.1316C782.017 62.3213 779.933 61.7425 777.676 61.3952C775.418 60.9901 773.335 60.7296 771.425 60.6138C770.962 60.6138 770.73 60.3823 770.73 59.9193V55.2311C770.73 54.768 770.933 54.5365 771.338 54.5365H829.246C829.536 54.5365 829.709 54.6233 829.767 54.797C829.883 54.9706 829.941 55.1153 829.941 55.2311V59.9193C829.941 60.2666 829.709 60.4402 829.246 60.4402C827.51 60.4402 825.802 60.6138 824.124 60.9611C822.503 61.2505 821.027 61.8293 819.696 62.6975C818.423 63.5657 817.381 64.8101 816.571 66.4307C815.818 67.9935 815.442 70.0771 815.442 72.6817V158.633C815.442 160.137 815.645 161.498 816.05 162.713C816.513 163.871 817.207 165.028 818.133 166.186C819.059 167.459 820.564 168.53 822.648 169.398C824.79 170.266 827.799 170.758 831.677 170.874C832.14 170.874 832.372 171.106 832.372 171.569V176.257C832.372 176.72 832.14 176.951 831.677 176.951H768.647C768.357 176.951 768.155 176.865 768.039 176.691C767.981 176.517 767.952 176.373 767.952 176.257V171.569C767.952 171.453 767.981 171.308 768.039 171.135C768.155 170.961 768.357 170.874 768.647 170.874C770.383 170.874 772.495 170.758 774.984 170.527C777.473 170.295 779.875 169.803 782.19 169.051C784.563 168.241 786.56 167.112 788.181 165.665C789.859 164.16 790.699 162.134 790.699 159.588V122.082C790.699 121.503 790.612 121.127 790.438 120.953C790.264 120.779 789.888 120.693 789.309 120.693H728.71C728.131 120.693 727.755 120.779 727.581 120.953C727.407 121.127 727.321 121.503 727.321 122.082V160.456C727.321 162.424 727.755 164.073 728.623 165.404C729.491 166.736 730.62 167.806 732.009 168.617C733.456 169.427 735.105 170.006 736.958 170.353C738.81 170.7 740.72 170.874 742.688 170.874C743.035 170.874 743.237 170.961 743.295 171.135C743.353 171.308 743.382 171.453 743.382 171.569V176.257C743.382 176.373 743.353 176.517 743.295 176.691C743.237 176.865 743.064 176.951 742.774 176.951H687.037Z" fill="white"/>
<path d="M238.731 254.408C238.563 254.408 238.479 254.324 238.479 254.156V253.401C238.479 253.234 238.626 253.15 238.92 253.15C239.905 253.15 240.995 253.045 242.19 252.835C246.026 252.186 247.944 250.865 247.944 248.874V215.702C247.734 213.019 246.508 211.562 244.265 211.332C243.594 211.248 242.85 211.206 242.032 211.206H240.24C240.073 211.206 239.989 211.122 239.989 210.955V210.168C239.989 210.001 240.073 209.917 240.24 209.917L241.624 209.885L247.032 209.854L258.225 209.508C270.215 209.508 276.21 213.051 276.21 220.136C276.21 223.133 274.659 225.628 271.557 227.619C271.074 227.933 270.655 228.164 270.299 228.311C269.964 228.457 269.775 228.541 269.733 228.562C272.5 230.113 274.669 231.853 276.241 233.782C277.835 235.71 278.631 238.016 278.631 240.699C278.631 246.421 275.927 250.404 270.519 252.647C267.731 253.821 264.702 254.408 261.432 254.408H238.731ZM254.641 229.883C254.368 229.883 254.232 229.998 254.232 230.229V247.459C254.232 248.947 254.924 250.142 256.307 251.043C257.712 251.945 259.221 252.395 260.835 252.395C263.937 252.395 266.578 251.295 268.758 249.094C270.938 246.872 272.028 244.147 272.028 240.919C272.028 237.67 270.854 235.018 268.507 232.964C266.18 230.91 263.224 229.883 259.64 229.883H254.641ZM254.169 227.336C254.169 227.734 254.41 227.933 254.892 227.933H262.627C264.639 227.933 266.327 227.189 267.689 225.701C269.073 224.213 269.764 222.546 269.764 220.702C269.764 217.411 268.832 215.032 266.966 213.564C265.1 212.076 262.617 211.332 259.514 211.332C258.571 211.395 257.911 211.426 257.533 211.426C257.177 211.426 256.8 211.426 256.401 211.426C256.003 211.405 255.605 211.426 255.207 211.489C254.808 211.552 254.536 211.688 254.389 211.898C254.242 212.107 254.169 212.453 254.169 212.935V227.336ZM430.699 211.332C427.178 211.332 425.417 212.736 425.417 215.545V238.058C425.417 242.208 426.79 245.604 429.536 248.245C432.282 250.865 435.803 252.175 440.1 252.175C444.565 252.175 448.223 250.98 451.074 248.591C453.946 246.18 455.381 242.847 455.381 238.592V218.595C455.381 216.604 455.203 215.22 454.847 214.445C453.946 212.369 451.912 211.332 448.747 211.332C448.579 211.332 448.496 211.248 448.496 211.08V210.326C448.496 210.158 448.579 210.074 448.747 210.074H464.217C464.384 210.074 464.468 210.158 464.468 210.326V211.08C464.468 211.248 464.238 211.332 463.776 211.332C461.03 211.332 459.354 212.401 458.746 214.539C458.641 214.895 458.588 215.231 458.588 215.545V236.14C458.588 245.342 455.067 251.263 448.024 253.905C445.655 254.806 443.297 255.257 440.949 255.257C432.544 255.257 426.35 253.056 422.367 248.654C420.313 246.39 419.286 243.591 419.286 240.259V215.105C419.286 213.323 418.206 212.149 416.047 211.583C415.418 211.416 414.884 211.332 414.444 211.332C414.003 211.332 413.783 211.248 413.783 211.08V210.326C413.783 210.158 413.857 210.074 414.003 210.074H431.045C431.213 210.074 431.297 210.158 431.297 210.326V211.08C431.297 211.248 431.098 211.332 430.699 211.332ZM616.159 254.156C616.159 254.324 616.075 254.408 615.907 254.408H597.419C597.273 254.408 597.199 254.324 597.199 254.156V253.559C597.199 253.391 597.64 253.297 598.52 253.276C599.421 253.255 600.511 252.93 601.79 252.301C603.09 251.651 603.739 250.676 603.739 249.377V215.105C603.739 212.736 601.643 211.426 597.451 211.175C597.283 211.175 597.199 211.091 597.199 210.923V210.326C597.199 210.158 597.273 210.074 597.419 210.074H615.907C616.075 210.074 616.159 210.158 616.159 210.326V210.923C616.159 211.049 615.719 211.112 614.838 211.112C613.979 211.112 613.025 211.363 611.977 211.866C610.573 212.537 609.871 213.638 609.871 215.168V229.034C609.871 230.878 610.049 231.801 610.405 231.801C611.306 231.801 612.449 231.235 613.832 230.103C615.216 228.95 616.442 227.766 617.511 226.55C618.58 225.334 619.649 223.898 620.718 222.242C621.808 220.565 622.563 219.423 622.982 218.815C624.554 216.593 625.34 214.927 625.34 213.816C625.34 212.684 624.858 211.929 623.894 211.552C623.265 211.3 622.364 211.175 621.19 211.175H620.875C620.708 211.175 620.624 211.091 620.624 210.923V210.326C620.624 210.158 620.708 210.074 620.875 210.074H639.049C639.217 210.074 639.3 210.158 639.3 210.326V210.923C639.3 211.175 639.175 211.3 638.923 211.3C636.24 211.384 634.28 211.741 633.043 212.369C631.807 212.977 630.811 213.648 630.056 214.382C629.323 215.115 628.516 216.226 627.635 217.715C624.952 222.263 622.28 225.9 619.618 228.625C618.486 229.778 617.899 230.491 617.857 230.763C617.962 230.973 618.821 231.811 620.435 233.278C624.46 236.968 628.683 241.967 633.106 248.276C634.762 250.687 636.932 252.175 639.615 252.741C641.397 253.16 642.518 253.37 642.979 253.37C643.461 253.37 643.702 253.454 643.702 253.622V254.156C643.702 254.324 643.619 254.408 643.451 254.408H622.888C622.72 254.408 622.636 254.324 622.636 254.156V253.559C622.636 253.391 622.992 253.276 623.705 253.213C626.074 253.003 627.258 252.311 627.258 251.138C627.111 249.964 625.005 247.061 620.938 242.428C620.205 241.611 619.439 240.699 618.643 239.693C615.457 235.773 612.837 233.813 610.782 233.813H610.185C609.975 233.813 609.871 233.96 609.871 234.253V248.968C609.871 251.903 611.883 253.37 615.907 253.37C616.075 253.37 616.159 253.454 616.159 253.622V254.156ZM792.626 211.332C789.105 211.332 787.344 212.736 787.344 215.545V238.058C787.344 242.208 788.717 245.604 791.463 248.245C794.209 250.865 797.73 252.175 802.028 252.175C806.492 252.175 810.15 250.98 813.001 248.591C815.873 246.18 817.308 242.847 817.308 238.592V218.595C817.308 216.604 817.13 215.22 816.774 214.445C815.873 212.369 813.839 211.332 810.674 211.332C810.506 211.332 810.423 211.248 810.423 211.08V210.326C810.423 210.158 810.506 210.074 810.674 210.074H826.144C826.311 210.074 826.395 210.158 826.395 210.326V211.08C826.395 211.248 826.165 211.332 825.703 211.332C822.958 211.332 821.281 212.401 820.673 214.539C820.568 214.895 820.516 215.231 820.516 215.545V236.14C820.516 245.342 816.994 251.263 809.951 253.905C807.582 254.806 805.224 255.257 802.876 255.257C794.471 255.257 788.277 253.056 784.294 248.654C782.24 246.39 781.213 243.591 781.213 240.259V215.105C781.213 213.323 780.133 212.149 777.974 211.583C777.345 211.416 776.811 211.332 776.371 211.332C775.931 211.332 775.71 211.248 775.71 211.08V210.326C775.71 210.158 775.784 210.074 775.931 210.074H792.972C793.14 210.074 793.224 210.158 793.224 210.326V211.08C793.224 211.248 793.025 211.332 792.626 211.332Z" fill="white"/>
<path d="M1047.39 67.3013C1049.8 67.3013 1058.89 77.7968 1062.71 84.9915C1066.95 92.9937 1065.67 111.698 1060.36 119.209C1056.47 124.699 1042.34 133.151 1040.39 131.144C1039.79 130.522 1042.09 126.426 1045.51 122.041C1048.92 117.656 1052.3 110.805 1053.01 106.815L1054.3 99.5599L1049.45 108.761C1046.77 113.822 1042.06 119.91 1038.96 122.289C1033.41 126.559 1033.3 126.564 1030.47 122.576C1024.69 114.447 1027.21 105.329 1038.98 91.7492C1044.27 85.6471 1045.75 82.1195 1045.75 75.6199C1045.75 71.0454 1046.49 67.3013 1047.39 67.3013Z" fill="white"/>
<path d="M1045.25 149.763C1054.09 152.679 1058.48 156.144 1061.98 162.964C1069.68 177.986 1064.9 201.504 1052.43 209.931C1048 212.928 1047.77 212.832 1047.77 207.966C1047.77 200.043 1044.72 193.543 1037.05 185.158C1033.18 180.927 1029.42 175.01 1028.69 172.011C1027.34 166.479 1030.78 154.712 1033.74 154.712C1037.39 154.712 1047.59 165.665 1051.65 173.949C1055.38 181.547 1055.83 181.92 1054.81 176.565C1054.16 173.131 1050.95 165.811 1047.67 160.298C1040.7 148.556 1040.63 148.239 1045.25 149.763Z" fill="white"/>
<path d="M1011.54 161.532C1015.15 164.077 1019.79 169.422 1021.84 173.41C1026.39 182.232 1026.57 189.851 1022.49 199.932C1019.17 208.139 1010.13 221.311 1007.82 221.311C1007.05 221.311 1006.36 214.988 1006.29 207.262C1006.12 188.415 1002.52 180.919 993.269 180.111C983.323 179.243 970.646 188.473 950.357 211.35C931.014 233.159 923.303 237.96 907.62 237.96C893.345 237.96 881.024 232.1 870.471 220.289C856.822 205.011 854.804 186.586 864.782 168.302C872.921 153.388 887.539 147.305 904.182 151.902C908.629 153.13 908.473 153.43 901.188 157.644C887.686 165.459 887.065 178.176 899.558 191.064C914.544 206.524 925.524 203.539 952.822 176.594C967.833 161.771 974.604 156.543 981.122 154.733C985.835 153.424 990.955 152.853 992.504 153.467C996.813 155.174 995.875 152.416 989.984 146.075L984.652 140.333L990.993 132.882C994.481 128.784 997.336 125.142 997.336 124.793C997.336 124.441 993.347 124.091 988.471 124.014C976.516 123.829 973.083 121.64 951.573 100.497C924.859 74.2358 911.842 71.3596 897.569 88.565C886.096 102.39 888.59 116.538 903.527 122.366L907.561 123.941L903.527 125.652C897.018 128.412 884.611 127.898 878.448 124.609C858.379 113.902 851.806 82.5919 865.43 62.5957C874.393 49.4404 888.027 41.64 903.88 40.5994C922.351 39.3861 928.968 43.1343 950.161 66.8142C976.593 96.3528 991.512 104.445 1000.55 94.1447C1003.47 90.8085 1004.56 85.824 1005.12 73.162L1005.85 56.5539L1011.93 62.4479C1019.97 70.242 1023.56 79.4347 1023.56 92.2029C1023.56 101.312 1022.61 103.754 1016.24 111.027C1012.22 115.625 1006.66 119.972 1003.9 120.686C999.095 121.931 999.202 122.104 1006.32 124.628C1014.32 127.465 1019.36 132.782 1019.46 138.485C1019.58 144.685 1015.21 152.094 1010.01 154.539L1004.97 156.908L1011.54 161.532Z" fill="white"/>
</svg>
